<svg xmlns="http://www.w3.org/2000/svg" id="svgcontent" x="654.0628386128878" y="237.56283861288787" viewBox="3.35 84.36 187.09 29.17">
  <defs style="pointer-events: inherit"/>
  <g style="pointer-events:all">
    <title style="pointer-events: inherit">Layer 1</title>
    <g fill-rule="evenodd" clip-rule="evenodd" id="svg_1" stroke="null">
      <path d="M48.2858203034401,100.42810151720047 C48.2858203034401,95.83810151720047 47.734820303440095,92.20010151720047 38.62682030344009,92.20010151720047 C31.024820303440094,92.20010151720047 28.484820303440095,94.93210151720046 28.538820303440094,99.43410151720047 L35.344820303440095,99.43410151720047 C35.527820303440095,97.78110151720047 37.0848203034401,97.04910151720047 38.1488203034401,97.04910151720047 C38.9568203034401,97.04910151720047 40.64482030344009,97.23310151720047 40.6458203034401,98.62810151720046 C40.6498203034401,102.81010151720047 27.493820303440096,98.95110151720047 27.493820303440096,107.84710151720047 C27.493820303440096,111.85010151720047 31.646820303440094,113.47410151720047 33.81582030344009,113.42010151720046 C36.67882030344009,113.35010151720047 38.88282030344009,112.83310151720048 41.04982030344009,110.81310151720047 L41.881820303440094,112.87010151720047 L48.633820303440096,112.87010151720047 C48.313820303440096,112.13510151720047 48.2858203034401,100.42810151720047 48.2858203034401,100.42810151720047 zM37.11382030344009,109.02710151720046 C35.60882030344009,109.02710151720046 34.9598203034401,108.00010151720048 34.969820303440095,107.04510151720046 C34.987820303440095,105.41210151720047 38.36782030344009,105.47110151720047 40.86482030344009,104.25910151720046 C41.04982030344009,106.90110151720047 39.79482030344009,109.02710151720046 37.11382030344009,109.02710151720046 zM183.1258203034401,104.79610151720047 C182.9048203034401,106.30110151720046 182.1338203034401,108.17010151720046 180.1508203034401,108.17010151720046 C177.7468203034401,108.17010151720046 176.4318203034401,105.83010151720048 176.4318203034401,102.92910151720046 C176.4318203034401,100.65310151720047 177.2858203034401,97.59810151720048 180.1508203034401,97.59810151720048 C180.9968203034401,97.59810151720048 181.6568203034401,97.85510151720047 182.1328203034401,98.36910151720048 C182.61182030344008,98.84710151720047 182.90382030344009,99.50710151720047 182.9418203034401,100.35210151720047 L190.2858203034401,100.35210151720047 C189.7348203034401,94.66010151720047 185.2918203034401,92.45610151720047 180.1508203034401,92.45610151720047 C173.7968203034401,92.45610151720047 169.0898203034401,96.23710151720047 169.0898203034401,102.81010151720047 C169.0898203034401,109.31010151720047 173.9438203034401,113.31010151720047 180.1508203034401,113.31010151720047 C185.47482030344008,113.31010151720047 189.77182030344008,110.63410151720046 190.4338203034401,104.79510151720046 L183.1258203034401,104.79510151720046 L183.1258203034401,104.79610151720047 zM160.9168203034401,112.88610151720047 L168.2918203034401,112.88610151720047 L168.2918203034401,93.11210151720047 L160.9168203034401,93.11210151720047 L160.9168203034401,112.88610151720047 zM160.9168203034401,90.08710151720047 L168.2918203034401,90.08710151720047 L168.2918203034401,85.03610151720046 L160.9168203034401,85.03610151720046 L160.9168203034401,90.08710151720047 zM126.2338203034401,92.25310151720046 C119.7338203034401,92.25310151720046 115.2608203034401,96.15310151720047 115.2608203034401,102.83710151720047 C115.2608203034401,109.41110151720046 120.10082030344009,113.31010151720047 126.27082030344009,113.31010151720047 S137.2868203034401,109.51310151720047 137.2868203034401,102.46210151720047 C137.2858203034401,96.47710151720047 133.0268203034401,92.25310151720046 126.2338203034401,92.25310151720046 zM126.27082030344009,108.16910151720047 C124.3238203034401,108.16910151720047 122.8178203034401,106.08010151720048 122.8178203034401,102.44410151720047 C122.8178203034401,100.27810151720047 123.73782030344009,97.59710151720047 126.34282030344009,97.59710151720047 C128.3268203034401,97.48710151720047 129.7278203034401,99.76910151720047 129.7278203034401,102.59710151720047 C129.7278203034401,106.23410151720047 128.3268203034401,108.16910151720047 126.27082030344009,108.16910151720047 zM101.88982030344009,97.90810151720046 C101.90782030344009,96.95310151720047 102.9448203034401,96.51010151720047 104.2668203034401,96.51010151720047 C104.85482030344009,96.51010151720047 105.6808203034401,96.65610151720047 106.0848203034401,96.98810151720048 C106.27982030344009,97.14710151720047 106.74082030344009,97.71610151720047 106.81882030344009,98.38410151720046 L113.7598203034401,98.38410151720046 C113.5708203034401,93.24710151720048 108.53282030344009,92.17510151720047 104.0308203034401,92.17510151720047 C100.0288203034401,92.17510151720047 94.83582030344009,93.75710151720047 94.82682030344009,98.67810151720047 C94.8138203034401,106.75110151720047 107.1628203034401,103.80410151720046 107.1628203034401,106.88810151720047 C107.1628203034401,108.24810151720047 106.1448203034401,108.75910151720046 104.3228203034401,108.75910151720046 C103.58682030344009,108.75910151720046 102.7958203034401,108.26310151720047 102.31882030344009,107.89610151720046 C101.8028203034401,107.49210151720047 101.59182030344009,107.02010151720047 101.5098203034401,106.13210151720047 L94.65182030344009,106.13210151720047 C94.78582030344009,111.52110151720046 99.70282030344009,113.53010151720046 104.10982030344009,113.53010151720046 C112.2818203034401,113.53010151720046 114.6388203034401,109.97710151720047 114.6688203034401,105.97410151720047 C114.72382030344009,98.25510151720047 101.83882030344009,100.68010151720047 101.88982030344009,97.90810151720046 zM93.5288203034401,100.42810151720047 C93.5288203034401,95.83810151720047 92.9778203034401,92.20010151720047 83.8698203034401,92.20010151720047 C76.26782030344009,92.20010151720047 73.7278203034401,94.93210151720046 73.7818203034401,99.43410151720047 L80.5878203034401,99.43410151720047 C80.7718203034401,97.78110151720047 82.32782030344009,97.04910151720047 83.3938203034401,97.04910151720047 C84.20182030344009,97.04910151720047 85.8888203034401,97.23310151720047 85.8908203034401,98.62810151720046 C85.8938203034401,102.81010151720047 72.73782030344009,98.95110151720047 72.73782030344009,107.84710151720047 C72.73782030344009,111.85010151720047 76.8908203034401,113.47410151720047 79.05982030344009,113.42010151720046 C81.92282030344009,113.35010151720047 84.1288203034401,112.83310151720048 86.29482030344009,110.81310151720047 L87.1268203034401,112.87010151720047 L93.8788203034401,112.87010151720047 C93.5558203034401,112.13510151720047 93.5288203034401,100.42810151720047 93.5288203034401,100.42810151720047 zM82.3558203034401,109.02710151720046 C80.85082030344009,109.02710151720046 80.20182030344009,108.00010151720048 80.21182030344009,107.04510151720046 C80.22982030344009,105.41210151720047 83.61082030344011,105.47110151720047 86.10782030344009,104.25910151720046 C86.2908203034401,106.90110151720047 85.0368203034401,109.02710151720046 82.3558203034401,109.02710151720046 zM16.450820303440096,84.35510151720047 L3.346820303440094,84.35510151720047 L3.346820303440094,112.86510151720047 L11.809820303440095,112.86510151720047 L11.809820303440095,104.02210151720047 L16.743820303440096,104.02210151720047 C24.345820303440092,104.02210151720047 28.051820303440095,99.93610151720047 28.051820303440095,94.24410151720048 C28.052820303440093,88.80910151720047 24.052820303440093,84.35510151720047 16.450820303440096,84.35510151720047 zM16.060820303440096,97.75210151720047 L11.810820303440094,97.75210151720047 L11.810820303440094,91.32110151720047 L14.922820303440094,91.32110151720047 C16.757820303440095,91.32110151720047 19.548820303440095,91.82010151720047 19.548820303440095,94.28010151720046 C19.549820303440093,96.55710151720046 18.080820303440095,97.75210151720047 16.060820303440096,97.75210151720047 zM152.13582030344008,92.25210151720047 C149.2358203034401,92.25210151720047 148.01082030344008,92.73410151720047 145.3118203034401,95.19910151720048 L145.33182030344008,93.01110151720047 L138.3338203034401,93.00510151720047 L138.3338203034401,112.88310151720047 L145.33182030344008,112.88310151720047 L145.33182030344008,102.44410151720047 C145.33182030344008,99.98310151720047 146.5978203034401,98.47810151720047 148.9488203034401,98.47810151720047 C151.1148203034401,98.47810151720047 151.6308203034401,99.61410151720047 151.6308203034401,101.52410151720046 L151.6308203034401,112.88410151720046 L159.2678203034401,112.88410151720046 L159.2678203034401,100.71810151720047 C159.26682030344008,95.43010151720047 157.2038203034401,92.25210151720047 152.13582030344008,92.25210151720047 zM64.34582030344009,92.25210151720047 C61.444820303440096,92.25210151720047 60.219820303440095,92.73410151720047 57.521820303440094,95.19910151720048 L57.539820303440095,93.01110151720047 L50.54382030344009,93.00510151720047 L50.54382030344009,112.88310151720047 L57.914820303440095,112.88310151720047 L57.914820303440095,102.44410151720047 C57.914820303440095,99.98310151720047 58.886820303440096,98.20110151720047 61.237820303440095,98.20110151720047 C63.40382030344009,98.20110151720047 63.8388203034401,99.61410151720047 63.8388203034401,101.52410151720046 L63.8388203034401,112.88410151720046 L71.4778203034401,112.88410151720046 L71.4778203034401,100.71810151720047 C71.47582030344009,95.43010151720047 69.4128203034401,92.25210151720047 64.34582030344009,92.25210151720047 z" id="svg_3" stroke="null"/>
    </g>
  </g>
</svg>